<svg width="189.000061" height="40.000000" viewBox="0 0 189 40" fill="none" xmlns="http://www.w3.org/2000/svg" xmlns:xlink="http://www.w3.org/1999/xlink">
	<desc>
			Created with Pixso.
	</desc>
	<defs/>
	<path id="Proxylab" d="M46.2657 31Q45.9454 31 45.7188 30.7812Q45.4922 30.5547 45.4922 30.2344L45.4922 9.39844Q45.4922 9.04688 45.7188 8.82812Q45.9454 8.60156 46.2657 8.60156L54.8438 8.60156Q57.336 8.60156 59.1876 9.39062Q61.0469 10.1719 62.0704 11.7578Q63.0938 13.3359 63.0938 15.7031Q63.0938 18.1016 62.0704 19.6562Q61.0469 21.2109 59.1876 21.9766Q57.336 22.7422 54.8438 22.7422L50.0704 22.7422L50.0704 30.2344Q50.0704 30.5547 49.8594 30.7812Q49.6563 31 49.3047 31L46.2657 31ZM50.0079 19.1953L54.6797 19.1953Q56.5391 19.1953 57.5313 18.3125Q58.5235 17.4297 58.5235 15.7031Q58.5235 14.1016 57.5938 13.125Q56.6641 12.1484 54.6797 12.1484L50.0079 12.1484L50.0079 19.1953ZM67.4709 31Q67.1506 31 66.924 30.7812Q66.6974 30.5547 66.6974 30.2344L66.6974 15.1562Q66.6974 14.8047 66.924 14.5859Q67.1506 14.3594 67.4709 14.3594L70.0568 14.3594Q70.3771 14.3594 70.6193 14.5859Q70.8615 14.8047 70.8615 15.1562L70.8615 16.4688Q71.5959 15.4453 72.7599 14.9062Q73.9318 14.3594 75.4709 14.3594L76.7834 14.3594Q77.1349 14.3594 77.3381 14.5859Q77.549 14.8047 77.549 15.125L77.549 17.4297Q77.549 17.75 77.3381 17.9766Q77.1349 18.2031 76.7834 18.2031L74.2834 18.2031Q72.7443 18.2031 71.8927 19.0547Q71.049 19.8984 71.049 21.4297L71.049 30.2344Q71.049 30.5547 70.8224 30.7812Q70.6037 31 70.2521 31L67.4709 31ZM87.6768 31.3203Q85.1221 31.3203 83.3721 30.4297Q81.6299 29.5312 80.7159 27.8984Q79.8096 26.2656 79.6768 24.0859Q79.6456 23.5156 79.6456 22.6875Q79.6456 21.8516 79.6768 21.2734Q79.8096 19.0625 80.7471 17.4453Q81.6924 15.8281 83.4346 14.9375Q85.1846 14.0391 87.6768 14.0391Q90.1768 14.0391 91.919 14.9375Q93.6612 15.8281 94.6065 17.4453Q95.5518 19.0625 95.6768 21.2734Q95.7159 21.8516 95.7159 22.6875Q95.7159 23.5156 95.6768 24.0859Q95.5518 26.2656 94.6377 27.8984Q93.7315 29.5312 91.9815 30.4297Q90.2393 31.3203 87.6768 31.3203ZM87.6768 28.1484Q89.3799 28.1484 90.3018 27.0781Q91.2315 26.0078 91.3252 23.9297Q91.3565 23.4453 91.3565 22.6797Q91.3565 21.9141 91.3252 21.4297Q91.2315 19.3516 90.3018 18.2812Q89.3799 17.2109 87.6768 17.2109Q85.9815 17.2109 85.0518 18.2812Q84.1299 19.3516 84.0284 21.4297Q83.9971 21.9141 83.9971 22.6797Q83.9971 23.4453 84.0284 23.9297Q84.1299 26.0078 85.0518 27.0781Q85.9815 28.1484 87.6768 28.1484ZM98.5463 31Q98.2572 31 98.0463 30.7969Q97.8432 30.5859 97.8432 30.2969Q97.8432 30.2031 97.8901 30.0781Q97.9369 29.9453 98.0697 29.75L103.507 22.4531L98.4526 15.6094Q98.3588 15.4453 98.3041 15.3203Q98.2572 15.1953 98.2572 15.0625Q98.2572 14.7734 98.4682 14.5703Q98.6791 14.3594 98.9604 14.3594L101.749 14.3594Q102.132 14.3594 102.32 14.5547Q102.515 14.7422 102.609 14.9062L106.226 19.7031L109.843 14.9062Q109.968 14.7422 110.148 14.5547Q110.328 14.3594 110.71 14.3594L113.367 14.3594Q113.656 14.3594 113.859 14.5703Q114.07 14.7734 114.07 15.0312Q114.07 15.1953 114.015 15.3203Q113.968 15.4453 113.874 15.6094L108.757 22.5234L114.226 29.75Q114.359 29.9453 114.406 30.0781Q114.453 30.2031 114.453 30.2969Q114.453 30.5859 114.242 30.7969Q114.038 31 113.749 31L110.835 31Q110.484 31 110.288 30.8281Q110.101 30.6484 109.968 30.4844L106.132 25.3984L102.226 30.4844Q102.101 30.6484 101.921 30.8281Q101.749 31 101.367 31L98.5463 31ZM120.805 37.0781Q120.555 37.0781 120.36 36.8828Q120.165 36.6953 120.165 36.4375Q120.165 36.3125 120.18 36.1953Q120.204 36.0859 120.297 35.9297L122.79 30.0078L116.649 15.5156Q116.516 15.1953 116.516 15.0625Q116.555 14.7734 116.743 14.5703Q116.938 14.3594 117.227 14.3594L119.813 14.3594Q120.204 14.3594 120.391 14.5547Q120.587 14.7422 120.68 14.9688L124.938 25.4297L129.321 14.9688Q129.415 14.7109 129.602 14.5391Q129.797 14.3594 130.18 14.3594L132.743 14.3594Q133.001 14.3594 133.204 14.5547Q133.415 14.7422 133.415 15Q133.415 15.1953 133.29 15.5156L124.235 36.4688Q124.102 36.7266 123.907 36.8984Q123.719 37.0781 123.337 37.0781L120.805 37.0781ZM137.47 31Q137.15 31 136.923 30.7812Q136.697 30.5547 136.697 30.2344L136.697 9.04688Q136.697 8.72656 136.923 8.50781Q137.15 8.28125 137.47 8.28125L140.126 8.28125Q140.447 8.28125 140.665 8.50781Q140.892 8.72656 140.892 9.04688L140.892 30.2344Q140.892 30.5547 140.665 30.7812Q140.447 31 140.126 31L137.47 31ZM150.481 31.3203Q148.817 31.3203 147.474 30.6641Q146.13 30.0078 145.341 28.9062Q144.56 27.7969 144.56 26.4219Q144.56 24.1875 146.38 22.8594Q148.208 21.5312 151.153 21.0781L155.536 20.4375L155.536 19.7656Q155.536 18.4219 154.864 17.6875Q154.192 16.9531 152.56 16.9531Q151.411 16.9531 150.685 17.4219Q149.966 17.8828 149.614 18.6484Q149.356 19.0625 148.88 19.0625L146.349 19.0625Q145.997 19.0625 145.817 18.875Q145.645 18.6797 145.645 18.3594Q145.677 17.8516 146.075 17.1172Q146.481 16.375 147.294 15.6875Q148.114 15 149.427 14.5234Q150.739 14.0391 152.591 14.0391Q154.606 14.0391 155.997 14.5391Q157.395 15.0312 158.224 15.8672Q159.06 16.6953 159.442 17.8203Q159.825 18.9375 159.825 20.1875L159.825 30.2344Q159.825 30.5547 159.599 30.7812Q159.38 31 159.06 31L156.466 31Q156.114 31 155.903 30.7812Q155.692 30.5547 155.692 30.2344L155.692 28.9844Q155.278 29.5625 154.575 30.1094Q153.872 30.6484 152.864 30.9844Q151.856 31.3203 150.481 31.3203ZM151.567 28.2812Q152.685 28.2812 153.599 27.8047Q154.513 27.3203 155.036 26.3125Q155.567 25.3047 155.567 23.7656L155.567 23.0938L152.364 23.6094Q150.481 23.8984 149.552 24.5391Q148.622 25.1797 148.622 26.1016Q148.622 26.8047 149.052 27.3047Q149.489 27.7969 150.161 28.0391Q150.833 28.2812 151.567 28.2812ZM173.636 31.3203Q171.777 31.3203 170.542 30.6797Q169.316 30.0391 168.519 29.0469L168.519 30.2344Q168.519 30.5547 168.308 30.7812Q168.097 31 167.746 31L165.222 31Q164.902 31 164.675 30.7812Q164.449 30.5547 164.449 30.2344L164.449 9.04688Q164.449 8.72656 164.675 8.50781Q164.902 8.28125 165.222 8.28125L167.941 8.28125Q168.292 8.28125 168.496 8.50781Q168.707 8.72656 168.707 9.04688L168.707 16.1484Q169.511 15.2266 170.707 14.6328Q171.91 14.0391 173.636 14.0391Q175.332 14.0391 176.582 14.6172Q177.832 15.1953 178.675 16.2344Q179.527 17.2734 179.972 18.6484Q180.417 20.0234 180.449 21.625Q180.488 22.2031 180.488 22.6641Q180.488 23.125 180.449 23.7031Q180.386 25.3672 179.941 26.7578Q179.496 28.1484 178.66 29.1797Q177.832 30.2031 176.582 30.7656Q175.332 31.3203 173.636 31.3203ZM172.449 27.8984Q173.832 27.8984 174.597 27.3047Q175.363 26.7109 175.714 25.75Q176.066 24.7891 176.128 23.6406Q176.167 22.6797 176.128 21.7188Q176.066 20.5703 175.714 19.6094Q175.363 18.6484 174.597 18.0547Q173.832 17.4609 172.449 17.4609Q171.175 17.4609 170.371 18.0391Q169.574 18.6172 169.152 19.5Q168.738 20.375 168.707 21.3359Q168.675 21.9141 168.675 22.5703Q168.675 23.2266 168.707 23.7969Q168.769 24.7891 169.136 25.7344Q169.511 26.6797 170.324 27.2891Q171.136 27.8984 172.449 27.8984Z" fill="#3D3D3F" fill-opacity="1.000000" fill-rule="evenodd"/>
	<path id="Vector" d="M31.5665 3.68945L27.2182 3.68945C25.8765 3.68945 24.7888 4.74854 24.7888 6.05493L24.7888 10.2886C24.7888 11.595 25.8765 12.6541 27.2182 12.6541L31.5665 12.6541C32.9083 12.6541 33.9961 11.595 33.9961 10.2886L33.9961 6.05493C33.9961 4.74854 32.9083 3.68945 31.5665 3.68945Z" fill="#FD695A" fill-opacity="1.000000" fill-rule="nonzero"/>
	<path id="Vector" d="M14.5381 12.9065L18.3566 12.9065C19.9366 12.9939 21.4396 13.5999 22.6204 14.626L22.7636 14.781C23.8228 15.9272 24.4462 17.3926 24.5296 18.9324L24.5296 22.6348C24.5296 23.2798 24.7928 23.8982 25.2612 24.3545C25.7297 24.8105 26.3651 25.0667 27.0275 25.0667L31.4982 25.0667C32.1606 25.0667 32.796 24.8105 33.2645 24.3545C33.7329 23.8982 33.9961 23.2798 33.9961 22.6348L33.9961 18.2817C33.9961 17.6367 33.7329 17.0183 33.2645 16.562C32.796 16.106 32.1606 15.8499 31.4982 15.8499L27.6957 15.8499C26.1143 15.7686 24.6092 15.1616 23.4318 14.1304L23.2728 13.9907C22.2169 12.8425 21.5941 11.3784 21.5067 9.83936L21.5067 6.12158C21.5067 5.47656 21.2436 4.85791 20.7751 4.40186C20.3066 3.9458 19.6713 3.68945 19.0089 3.68945L14.5381 3.68945C13.8757 3.68945 13.2404 3.9458 12.7719 4.40186C12.3035 4.85791 12.0403 5.47656 12.0403 6.12158L12.0403 10.4744C12.0403 11.1194 12.3035 11.738 12.7719 12.1941C13.2404 12.6501 13.8757 12.9065 14.5381 12.9065Z" fill="#FD695A" fill-opacity="1.000000" fill-rule="nonzero"/>
	<path id="Vector" d="M32.2142 28.1472L28.4318 28.1472C26.8572 28.0476 25.3654 27.4116 24.2079 26.3464L23.7824 25.9238C22.7332 24.7649 22.1157 23.2837 22.033 21.7273L22.033 17.9692C22.0289 17.3186 21.7668 16.6956 21.3038 16.2356C20.8406 15.7754 20.2136 15.5151 19.5586 15.511L15.7761 15.511C14.2145 15.4456 12.7232 14.8486 11.5524 13.8198L11.1269 13.397C10.0776 12.2383 9.46014 10.7571 9.37738 9.20068L9.37738 5.4585C9.37738 4.8064 9.1167 4.18115 8.65271 3.71997C8.18866 3.25903 7.55933 3 6.90308 3L2.47437 3C1.81818 3 1.18872 3.25903 0.724731 3.71997C0.260681 4.18115 0 4.8064 0 5.4585L0 9.8584C0 10.5103 0.260681 11.1357 0.724731 11.5967C1.18872 12.0576 1.81818 12.3167 2.47437 12.3167L6.24115 12.3167C7.83167 12.3889 9.34729 13.009 10.528 14.0703L10.9535 14.4932C11.9995 15.6541 12.6164 17.134 12.7029 18.6895L12.7029 22.4475C12.707 23.0984 12.9691 23.7212 13.4321 24.1814C13.8953 24.6414 14.5223 24.9019 15.1772 24.906L18.9597 24.906C20.509 25.0022 21.9803 25.6145 23.1363 26.644L23.5618 27.0667C24.6077 28.2275 25.2247 29.7075 25.3112 31.2632L25.3112 35.0212C25.3153 35.6719 25.5773 36.2947 26.0405 36.7549C26.5036 37.2151 27.1306 37.4753 27.7855 37.4795L32.23 37.4795C32.8849 37.4753 33.512 37.2151 33.9751 36.7549C34.4382 36.2947 34.7003 35.6719 34.7044 35.0212L34.7044 30.6055C34.7002 29.9521 34.436 29.3269 33.9695 28.8662C33.503 28.4058 32.8719 28.1472 32.2142 28.1472Z" fill="#FD695A" fill-opacity="1.000000" fill-rule="nonzero"/>
	<path id="Vector" d="M7.29919 27.8252L2.61633 27.8252C1.17139 27.8252 0 28.8843 0 30.1907L0 34.4243C0 35.731 1.17139 36.7898 2.61633 36.7898L7.29919 36.7898C8.74414 36.7898 9.91553 35.731 9.91553 34.4243L9.91553 30.1907C9.91553 28.8843 8.74414 27.8252 7.29919 27.8252Z" fill="#FD695A" fill-opacity="1.000000" fill-rule="nonzero"/>
	<path id="Vector" d="M19.458 27.573L15.6555 27.573C14.074 27.4917 12.569 26.885 11.3915 25.8535L11.2325 25.7141C10.1699 24.5576 9.54663 23.0815 9.46643 21.5317L9.46643 17.814C9.45856 17.1875 9.20276 16.5881 8.75226 16.1409C8.3017 15.6936 7.69128 15.4329 7.0481 15.4128L2.49786 15.4128C1.83539 15.4128 1.20007 15.6692 0.731628 16.1252C0.263184 16.5813 0 17.2 0 17.845L0 22.1978C0 22.8428 0.263184 23.4614 0.731628 23.9175C1.20007 24.3735 1.83539 24.6299 2.49786 24.6299L6.31628 24.6299C7.8963 24.7173 9.39935 25.3232 10.5801 26.3494L10.7234 26.5042C11.7826 27.6506 12.4059 29.116 12.4893 30.6558L12.4893 34.3579C12.4893 34.6787 12.5545 34.9961 12.681 35.2922C12.8076 35.5884 12.993 35.8572 13.2266 36.0833C13.4602 36.3093 13.7375 36.488 14.0424 36.6094C14.3473 36.7307 14.6738 36.792 15.0031 36.79L19.458 36.79C20.1204 36.79 20.7558 36.5339 21.2242 36.0776C21.6927 35.6216 21.9559 35.0029 21.9559 34.3579L21.9559 30.0051C21.9559 29.3601 21.6927 28.7415 21.2242 28.2854C20.7558 27.8293 20.1204 27.573 19.458 27.573Z" fill="#FD695A" fill-opacity="1.000000" fill-rule="nonzero"/>
</svg>
